<svg width="18" height="19" viewBox="0 0 18 19" fill="none" xmlns="http://www.w3.org/2000/svg">
<path d="M17.5153 7.47684L10.0153 0.400593C10.0116 0.397394 10.0082 0.393949 10.005 0.390281C9.72887 0.139155 9.36903 0 8.99578 0C8.62253 0 8.2627 0.139155 7.98656 0.390281L7.97625 0.400593L0.484687 7.47684C0.331873 7.61736 0.209891 7.78807 0.126461 7.97817C0.0430305 8.16827 -3.15402e-05 8.37362 1.73323e-08 8.58122V17.2484C1.73323e-08 17.6462 0.158035 18.0278 0.43934 18.3091C0.720644 18.5904 1.10218 18.7484 1.5 18.7484H16.5C16.8978 18.7484 17.2794 18.5904 17.5607 18.3091C17.842 18.0278 18 17.6462 18 17.2484V8.58122C18 8.37362 17.957 8.16827 17.8735 7.97817C17.7901 7.78807 17.6681 7.61736 17.5153 7.47684ZM16.5 17.2484H1.5V8.58122L1.51031 8.57184L9 1.49841L16.4906 8.56997L16.5009 8.57934L16.5 17.2484Z" fill="#AC362F"/>
</svg>
